HIERARCHY
ROOT CG
{
	OFFSET 0.000000 0.000000 27.772259
	CHANNELS 6 Xposition Yposition Zposition Xrotation Yrotation Zrotation
	JOINT Pelvis
	{
		OFFSET 0.000000 0.000000 0.000000
		CHANNELS 3 Xrotation Yrotation Zrotation
		JOINT Spine
		{
			OFFSET -0.000017 -10.490843 -0.495483
			CHANNELS 3 Xrotation Yrotation Zrotation
			JOINT Spine1
			{
				OFFSET -0.000010 -22.678980 0.018061
				CHANNELS 3 Xrotation Yrotation Zrotation
				JOINT Spine2
				{
					OFFSET -0.000010 -22.678967 0.018061
					CHANNELS 3 Xrotation Yrotation Zrotation
					JOINT Spine3
					{
						OFFSET -0.000010 -22.678982 0.018059
						CHANNELS 3 Xrotation Yrotation Zrotation
						JOINT Neck
						{
							OFFSET -0.000012 -22.678986 -1.289251
							CHANNELS 3 Xrotation Yrotation Zrotation
							JOINT Neck1
							{
								OFFSET -0.000007 -16.255905 0.012947
								CHANNELS 3 Xrotation Yrotation Zrotation
								JOINT Head
								{
									OFFSET -0.000005 -10.784607 -0.287502
									CHANNELS 3 Xrotation Yrotation Zrotation
									JOINT Jaw01
									{
										OFFSET 0.000031 7.782959 5.073944
										CHANNELS 3 Xrotation Yrotation Zrotation
										JOINT Jaw02
										{
											OFFSET 0.000004 -34.927139 -18.883980
											CHANNELS 3 Xrotation Yrotation Zrotation
											End Site
											{
												OFFSET -0.000170 8.372803 -38.812450
											}
										}
									}
									JOINT Nose
									{
										OFFSET -0.000002 -25.700912 7.222265
										CHANNELS 3 Xrotation Yrotation Zrotation
										End Site
										{
											OFFSET -0.000090 0.641281 -21.715439
										}
									}
									JOINT L_EyeSocket
									{
										OFFSET 7.352326 -19.832718 14.164183
										CHANNELS 3 Xrotation Yrotation Zrotation
										JOINT L_Eye
										{
											OFFSET -0.000868 -0.001053 0.016003
											CHANNELS 3 Xrotation Yrotation Zrotation
											End Site
											{
												OFFSET -0.001505 -0.001846 0.027969
											}
										}
										JOINT L_Eyelid_Top
										{
											OFFSET -0.001004 -0.002625 0.032516
											CHANNELS 3 Xrotation Yrotation Zrotation
											End Site
											{
												OFFSET -0.013218 0.005753 0.024086
											}
										}
										JOINT L_Eyelid_Bottom
										{
											OFFSET -0.001194 -0.002777 0.035381
											CHANNELS 3 Xrotation Yrotation Zrotation
											End Site
											{
												OFFSET -0.010032 0.008636 -0.024754
											}
										}
									}
									JOINT R_EyeSocket
									{
										OFFSET -7.352252 -19.832748 14.164206
										CHANNELS 3 Xrotation Yrotation Zrotation
										JOINT R_Eye
										{
											OFFSET 0.000875 -0.001068 0.015991
											CHANNELS 3 Xrotation Yrotation Zrotation
											End Site
											{
												OFFSET 0.001505 -0.001846 0.027962
											}
										}
										JOINT R_Eyelid_Top
										{
											OFFSET 0.001021 -0.002625 0.032516
											CHANNELS 3 Xrotation Yrotation Zrotation
											End Site
											{
												OFFSET 0.013214 0.005753 0.024078
											}
										}
										JOINT R_Eyelid_Bottom
										{
											OFFSET 0.001170 -0.002762 0.035366
											CHANNELS 3 Xrotation Yrotation Zrotation
											End Site
											{
												OFFSET 0.010029 0.008636 -0.024746
											}
										}
									}
								}
								JOINT Neck_Fat
								{
									OFFSET 0.000044 -9.595100 -17.491512
									CHANNELS 3 Xrotation Yrotation Zrotation
									End Site
									{
										OFFSET -0.000036 15.369423 -0.000007
									}
								}
							}
						}
						JOINT L_Clavicle
						{
							OFFSET 4.567107 -11.666092 -3.750029
							CHANNELS 3 Xrotation Yrotation Zrotation
							JOINT L_UpperArm
							{
								OFFSET 20.725666 -0.000053 -0.000032
								CHANNELS 3 Xrotation Yrotation Zrotation
								JOINT L_Forearm
								{
									OFFSET 5.265112 -0.585754 -20.155697
									CHANNELS 3 Xrotation Yrotation Zrotation
									JOINT L_Hand
									{
										OFFSET 2.653017 -10.877708 -16.383667
										CHANNELS 3 Xrotation Yrotation Zrotation
										JOINT L_Finger0
										{
											OFFSET -4.206146 -4.328911 -5.034346
											CHANNELS 3 Xrotation Yrotation Zrotation
											JOINT L_Finger01
											{
												OFFSET 0.084272 -1.788536 -4.181065
												CHANNELS 3 Xrotation Yrotation Zrotation
												End Site
												{
													OFFSET 3.261885 3.094673 -0.685818
												}
											}
										}
										JOINT L_Finger1
										{
											OFFSET -1.039112 -6.775742 -3.499998
											CHANNELS 3 Xrotation Yrotation Zrotation
											JOINT L_Finger11
											{
												OFFSET 1.320335 -3.040672 -6.425793
												CHANNELS 3 Xrotation Yrotation Zrotation
												End Site
												{
													OFFSET -1.244579 6.832077 -2.013330
												}
											}
										}
										JOINT L_Finger2
										{
											OFFSET 2.531296 -5.656487 -3.286415
											CHANNELS 3 Xrotation Yrotation Zrotation
											JOINT L_Finger21
											{
												OFFSET 1.991665 -2.402016 -5.957748
												CHANNELS 3 Xrotation Yrotation Zrotation
												End Site
												{
													OFFSET -2.793068 5.800873 -1.944178
												}
											}
										}
										JOINT L_Finger3
										{
											OFFSET 5.474075 -3.302338 -2.655975
											CHANNELS 3 Xrotation Yrotation Zrotation
											JOINT L_Finger31
											{
												OFFSET 2.026943 -1.267532 -5.961166
												CHANNELS 3 Xrotation Yrotation Zrotation
												End Site
												{
													OFFSET -4.375172 4.343658 -1.800320
												}
											}
										}
										JOINT L_Finger4
										{
											OFFSET 4.825745 1.085899 -2.321970
											CHANNELS 3 Xrotation Yrotation Zrotation
											JOINT L_Finger41
											{
												OFFSET 3.358261 -1.829651 -3.744434
												CHANNELS 3 Xrotation Yrotation Zrotation
												End Site
												{
													OFFSET -3.843296 2.955200 -2.267633
												}
											}
										}
									}
								}
							}
						}
						JOINT R_Clavicle
						{
							OFFSET -4.567111 -11.666092 -3.750036
							CHANNELS 3 Xrotation Yrotation Zrotation
							JOINT R_UpperArm
							{
								OFFSET -20.725670 -0.000031 0.000038
								CHANNELS 3 Xrotation Yrotation Zrotation
								JOINT R_Forearm
								{
									OFFSET -5.265285 -0.585762 -20.155655
									CHANNELS 3 Xrotation Yrotation Zrotation
									JOINT R_Hand
									{
										OFFSET -2.653147 -10.877739 -16.383663
										CHANNELS 3 Xrotation Yrotation Zrotation
										JOINT R_Finger0
										{
											OFFSET 4.206116 -4.328888 -5.034388
											CHANNELS 3 Xrotation Yrotation Zrotation
											JOINT R_Finger01
											{
												OFFSET -0.084324 -1.788544 -4.181051
												CHANNELS 3 Xrotation Yrotation Zrotation
												End Site
												{
													OFFSET -3.261890 3.094666 -0.685791
												}
											}
										}
										JOINT R_Finger1
										{
											OFFSET 1.039101 -6.775711 -3.499994
											CHANNELS 3 Xrotation Yrotation Zrotation
											JOINT R_Finger11
											{
												OFFSET -1.320374 -3.040672 -6.425779
												CHANNELS 3 Xrotation Yrotation Zrotation
												End Site
												{
													OFFSET 1.244556 6.832077 -2.013342
												}
											}
										}
										JOINT R_Finger2
										{
											OFFSET -2.531307 -5.656464 -3.286409
											CHANNELS 3 Xrotation Yrotation Zrotation
											JOINT R_Finger21
											{
												OFFSET -1.991707 -2.402016 -5.957708
												CHANNELS 3 Xrotation Yrotation Zrotation
												End Site
												{
													OFFSET 2.793037 5.800858 -1.944197
												}
											}
										}
										JOINT R_Finger3
										{
											OFFSET -5.474091 -3.302330 -2.655947
											CHANNELS 3 Xrotation Yrotation Zrotation
											JOINT R_Finger31
											{
												OFFSET -2.026993 -1.267532 -5.961157
												CHANNELS 3 Xrotation Yrotation Zrotation
												End Site
												{
													OFFSET 4.375156 4.343674 -1.800358
												}
											}
										}
										JOINT R_Finger4
										{
											OFFSET -4.825756 1.085922 -2.321926
											CHANNELS 3 Xrotation Yrotation Zrotation
											JOINT R_Finger41
											{
												OFFSET -3.358307 -1.829651 -3.744390
												CHANNELS 3 Xrotation Yrotation Zrotation
												End Site
												{
													OFFSET 3.843273 2.955208 -2.267666
												}
											}
										}
									}
								}
							}
						}
					}
				}
			}
		}
		JOINT Tail01
		{
			OFFSET -0.000010 10.922326 -0.017508
			CHANNELS 3 Xrotation Yrotation Zrotation
			JOINT Tail02
			{
				OFFSET -0.000022 21.986111 0.000013
				CHANNELS 3 Xrotation Yrotation Zrotation
				JOINT Tail03
				{
					OFFSET -0.000022 21.986118 0.000002
					CHANNELS 3 Xrotation Yrotation Zrotation
					JOINT Tail04
					{
						OFFSET -0.000022 21.986122 0.000004
						CHANNELS 3 Xrotation Yrotation Zrotation
						JOINT Tail05
						{
							OFFSET -0.000022 21.986099 0.000010
							CHANNELS 3 Xrotation Yrotation Zrotation
							JOINT Tail06
							{
								OFFSET -0.000022 21.986099 0.000006
								CHANNELS 3 Xrotation Yrotation Zrotation
								JOINT Tail07
								{
									OFFSET -0.000022 21.986099 0.000000
									CHANNELS 3 Xrotation Yrotation Zrotation
									JOINT Tail08
									{
										OFFSET -0.000022 21.984848 0.000050
										CHANNELS 3 Xrotation Yrotation Zrotation
										JOINT Tail09
										{
											OFFSET -0.000025 21.926025 -1.606211
											CHANNELS 3 Xrotation Yrotation Zrotation
											JOINT Tail10
											{
												OFFSET -0.000027 21.750092 -3.203882
												CHANNELS 3 Xrotation Yrotation Zrotation
												End Site
												{
													OFFSET -0.000036 4.767395 21.461668
												}
											}
										}
									}
								}
							}
						}
					}
				}
			}
		}
		JOINT L_Thigh
		{
			OFFSET 24.788780 0.000021 -0.000034
			CHANNELS 3 Xrotation Yrotation Zrotation
			JOINT L_Calf
			{
				OFFSET 4.720837 4.161326 -21.049969
				CHANNELS 3 Xrotation Yrotation Zrotation
				JOINT L_Foot
				{
					OFFSET 2.154160 21.114433 -11.949743
					CHANNELS 3 Xrotation Yrotation Zrotation
					JOINT L_Toe0
					{
						OFFSET 4.557564 9.251841 -8.735286
						CHANNELS 3 Xrotation Yrotation Zrotation
						End Site
						{
							OFFSET 4.555542 -12.646044 1.018752
						}
					}
					JOINT L_Toe1
					{
						OFFSET 2.346291 5.845602 -11.687160
						CHANNELS 3 Xrotation Yrotation Zrotation
						End Site
						{
							OFFSET 5.347954 -12.298279 1.365644
						}
					}
					JOINT L_Toe2
					{
						OFFSET -0.356020 3.902458 -12.541145
						CHANNELS 3 Xrotation Yrotation Zrotation
						End Site
						{
							OFFSET 3.916235 -12.806129 1.542549
						}
					}
					JOINT L_Toe3
					{
						OFFSET -4.603447 3.183935 -12.435249
						CHANNELS 3 Xrotation Yrotation Zrotation
						End Site
						{
							OFFSET 3.810858 -12.587427 2.957583
						}
					}
					JOINT L_Toe4
					{
						OFFSET -7.144358 6.231495 -10.072764
						CHANNELS 3 Xrotation Yrotation Zrotation
						End Site
						{
							OFFSET 3.810858 -12.587425 2.957585
						}
					}
				}
			}
		}
		JOINT R_Thigh
		{
			OFFSET -24.788780 -0.000024 0.000034
			CHANNELS 3 Xrotation Yrotation Zrotation
			JOINT R_Calf
			{
				OFFSET -4.720922 4.161324 -21.049952
				CHANNELS 3 Xrotation Yrotation Zrotation
				JOINT R_Foot
				{
					OFFSET -2.154238 21.114414 -11.949730
					CHANNELS 3 Xrotation Yrotation Zrotation
					JOINT R_Toe0
					{
						OFFSET -4.557598 9.251823 -8.735270
						CHANNELS 3 Xrotation Yrotation Zrotation
						End Site
						{
							OFFSET -4.555508 -12.646051 1.018756
						}
					}
					JOINT R_Toe1
					{
						OFFSET -2.346325 5.845589 -11.687157
						CHANNELS 3 Xrotation Yrotation Zrotation
						End Site
						{
							OFFSET -5.347919 -12.298286 1.365654
						}
					}
					JOINT R_Toe2
					{
						OFFSET 0.355980 3.902462 -12.541145
						CHANNELS 3 Xrotation Yrotation Zrotation
						End Site
						{
							OFFSET -3.916199 -12.806131 1.542559
						}
					}
					JOINT R_Toe3
					{
						OFFSET 4.603411 3.183941 -12.435266
						CHANNELS 3 Xrotation Yrotation Zrotation
						End Site
						{
							OFFSET -3.810825 -12.587429 2.957591
						}
					}
					JOINT R_Toe4
					{
						OFFSET 7.144323 6.231503 -10.072779
						CHANNELS 3 Xrotation Yrotation Zrotation
						End Site
						{
							OFFSET -3.810825 -12.587433 2.957584
						}
					}
				}
			}
		}
	}
}
MOTION
Frames: 4
Frame Time: 0.033333
-0.000001 -17.025875 48.235760 0.000000 -0.000000 0.000044 -8.845676 -0.000092 0.000014 11.521261 0.812285 2.711821 2.675819 0.811925 2.711894 5.434130 0.811922 2.711894 -1.605313 0.812041 2.711854 5.223989 -1.912475 -8.277918 -0.797599 -1.912293 -8.277944 12.715810 4.640016 19.181307 -16.356256 -0.000047 0.000056 -4.819205 -0.000012 0.000019 0.000018 -0.000000 -0.000000 -0.000009 0.000007 -0.000017 0.004694 0.002254 -0.005464 -0.000006 -0.000008 -0.000004 0.000005 0.000003 0.000007 0.000005 -0.000000 0.000007 0.004696 -0.002250 0.005458 0.000008 -0.000011 0.000002 0.000016 -0.000014 -0.000001 -0.000001 -0.000000 -0.000000 -0.000869 4.114585 11.904647 50.184436 -22.287223 -35.276547 -37.210457 8.627406 -7.481945 -77.074546 -20.429813 -35.560598 4.814243 45.237876 32.496817 0.108395 -0.103820 0.046714 31.239871 13.715131 -10.715217 -21.103481 -3.971325 -2.962968 30.256536 6.344425 -6.448662 -32.343285 -14.390353 -8.157529 20.872339 -11.244813 -8.185807 -18.722440 -18.085390 -5.094124 18.635512 -29.682653 -0.393829 0.555230 0.804612 0.101799 -0.000622 -4.113389 -11.900712 42.119646 19.438918 3.509173 -23.435095 -4.863247 5.364177 -83.366277 -0.225885 5.089601 4.813899 -45.237828 -32.497125 0.108392 0.103817 -0.046716 31.239929 -13.715164 10.714977 -21.103473 3.971272 2.963139 30.256553 -6.344441 6.448433 -32.343306 14.390252 8.157747 20.872419 11.244833 8.185620 -18.722460 18.085330 5.094269 18.635550 29.682663 0.393674 0.555238 -0.804619 -0.101801 -11.394489 -0.000001 0.000032 -8.690517 -1.231629 3.950030 3.556860 -0.189701 4.130721 10.257595 -0.516051 -5.348505 8.081493 -0.218417 -5.341317 3.148910 -0.197518 -9.484001 2.260637 -0.383769 -9.446040 3.251178 -0.485174 7.193017 2.528395 0.391764 7.066700 2.504829 0.702950 7.052489 -6.980251 -14.387134 13.806630 -4.436041 -0.084798 -1.023044 -50.255627 -15.910550 -2.307217 -2.318592 -4.298928 -0.446772 8.087297 0.872401 0.413572 17.133844 6.636280 3.687463 20.253536 6.370521 -9.434377 -1.696118 7.323597 -8.103854 27.593951 -0.518927 -25.181681 -47.710295 -3.135615 10.295509 -43.777595 18.801189 1.705232 -2.318605 4.298944 0.446769 8.087304 -0.872358 -0.413613 17.133825 -6.636219 -3.687524 20.253560 -6.370405 9.434282 -1.696094 -7.323607 8.103837 
-0.000001 -17.006527 48.247154 0.000000 -0.000000 0.000044 -8.849795 -0.000090 0.000000 11.539034 0.812138 2.715038 2.667035 0.811533 2.715165 5.425343 0.811530 2.715166 -1.606060 0.811762 2.715105 5.228780 -1.906726 -8.274035 -0.794460 -1.906697 -8.274043 12.703512 4.633741 19.132268 -16.344286 -0.000045 0.000056 -4.823035 -0.000012 0.000018 0.000020 0.000000 -0.000002 -0.000006 0.000007 -0.000018 -0.024252 -0.023974 0.280559 -0.000000 -0.000007 -0.000005 0.000012 0.000000 0.000005 0.000006 0.000001 0.000007 -0.024258 0.023978 -0.280583 0.000009 -0.000013 -0.000002 0.000013 -0.000014 -0.000005 -0.000000 -0.000000 -0.000000 -0.000846 4.029666 11.904698 50.096951 -22.142292 -35.332651 -37.082811 8.590355 -7.466513 -77.073016 -20.349306 -35.541200 4.814243 45.237883 32.496821 0.108394 -0.103819 0.046715 31.239868 13.715134 -10.715219 -21.103478 -3.971324 -2.962967 30.256536 6.344424 -6.448662 -32.343278 -14.390355 -8.157535 20.872334 -11.244813 -8.185805 -18.722436 -18.085385 -5.094125 18.635507 -29.682653 -0.393831 0.555232 0.804613 0.101800 -0.000541 -4.108671 -11.899499 42.086178 19.446870 3.541138 -23.408996 -4.856643 5.359342 -83.360464 -0.208452 5.068610 4.813903 -45.237828 -32.497121 0.108397 0.103819 -0.046715 31.239926 -13.715164 10.714980 -21.103475 3.971270 2.963141 30.256556 -6.344441 6.448431 -32.343302 14.390252 8.157742 20.872421 11.244834 8.185626 -18.722471 18.085330 5.094267 18.635553 29.682663 0.393676 0.555238 -0.804619 -0.101803 -11.409489 -0.000001 0.000032 -8.695523 -1.231629 3.950023 3.555496 -0.189903 4.130721 10.256209 -0.515964 -5.348506 8.084175 -0.218257 -5.341317 3.150540 -0.197662 -9.484003 2.262190 -0.383889 -9.446046 3.252857 -0.485586 7.192964 2.530081 0.391585 7.066634 2.504828 0.702949 7.052490 -6.993361 -14.381380 13.811757 -4.461886 -0.085061 -1.029018 -50.243954 -15.909237 -2.321057 -2.318589 -4.298932 -0.446772 8.087295 0.872401 0.413572 17.133842 6.636278 3.687466 20.253539 6.370520 -9.434375 -1.696112 7.323594 -8.103848 27.578745 -0.523154 -25.199235 -47.728375 -3.138375 10.298717 -43.750077 18.781422 1.711761 -2.318606 4.298942 0.446766 8.087309 -0.872364 -0.413616 17.133827 -6.636222 -3.687519 20.253560 -6.370404 9.434279 -1.696095 -7.323611 8.103836 
-0.000001 -16.985546 48.253677 0.000000 -0.000000 0.000044 -8.859480 -0.000092 0.000014 11.551207 0.811561 2.717353 2.664575 0.810749 2.717521 5.422885 0.810746 2.717523 -1.607053 0.811073 2.717440 5.228940 -1.911141 -8.293232 -0.793887 -1.911028 -8.293264 12.682312 4.653049 19.127982 -16.333009 -0.000048 0.000056 -4.830320 -0.000012 0.000018 0.000023 0.000000 -0.000001 -0.000004 0.000007 -0.000015 -0.046457 -0.045932 0.537079 0.000001 -0.000007 -0.000002 0.000010 0.000003 0.000009 0.000009 -0.000001 0.000008 -0.046470 0.045940 -0.537124 0.000006 -0.000014 -0.000003 0.000008 -0.000014 -0.000006 -0.000001 -0.000000 -0.000000 -0.000874 3.942126 11.904806 50.008828 -21.994806 -35.387869 -36.968703 8.557248 -7.452647 -77.058604 -20.270692 -35.523124 4.814239 45.237883 32.496817 0.108394 -0.103815 0.046716 31.239871 13.715133 -10.715219 -21.103485 -3.971329 -2.962967 30.256543 6.344425 -6.448664 -32.343288 -14.390353 -8.157531 20.872334 -11.244814 -8.185808 -18.722435 -18.085388 -5.094121 18.635514 -29.682657 -0.393830 0.555233 0.804615 0.101798 -0.000489 -4.095993 -11.898441 42.044011 19.449445 3.580602 -23.378520 -4.848936 5.353694 -83.355533 -0.188948 5.047028 4.813901 -45.237825 -32.497121 0.108397 0.103816 -0.046714 31.239933 -13.715164 10.714977 -21.103469 3.971274 2.963136 30.256567 -6.344444 6.448428 -32.343306 14.390252 8.157746 20.872419 11.244835 8.185625 -18.722469 18.085332 5.094268 18.635560 29.682663 0.393674 0.555238 -0.804614 -0.101800 -11.417097 -0.000001 0.000032 -8.696797 -1.231629 3.950023 3.556068 -0.190157 4.130723 10.256767 -0.516044 -5.348507 8.083991 -0.218057 -5.341316 3.150383 -0.197838 -9.484002 2.262016 -0.384208 -9.446046 3.252841 -0.486460 7.192935 2.530005 0.391157 7.066608 2.504830 0.702950 7.052490 -7.014910 -14.382053 13.810770 -4.458621 -0.085028 -1.028263 -50.181550 -15.913697 -2.325248 -2.318590 -4.298931 -0.446775 8.087297 0.872400 0.413572 17.133845 6.636280 3.687466 20.253543 6.370512 -9.434374 -1.696114 7.323597 -8.103851 27.559455 -0.517869 -25.228315 -47.727043 -3.138176 10.298480 -43.721168 18.761269 1.712725 -2.318605 4.298941 0.446768 8.087310 -0.872362 -0.413616 17.133828 -6.636222 -3.687521 20.253560 -6.370403 9.434277 -1.696096 -7.323610 8.103836 
-0.000001 -16.963005 48.255558 0.000000 -0.000000 0.000044 -8.874583 -0.000093 0.000014 11.558219 0.810513 2.718289 2.669150 0.809541 2.718510 5.427460 0.809539 2.718519 -1.608286 0.809941 2.718416 5.225539 -1.921221 -8.326730 -0.794948 -1.920996 -8.326778 12.652832 4.697555 19.164247 -16.322212 -0.000047 0.000054 -4.840605 -0.000011 0.000018 0.000020 -0.000001 -0.000001 -0.000008 0.000007 -0.000020 -0.066590 -0.065973 0.770209 0.000003 -0.000005 -0.000003 0.000005 0.000000 0.000007 0.000004 0.000000 0.000007 -0.066601 0.065985 -0.770248 0.000010 -0.000012 0.000005 0.000006 -0.000010 0.000003 -0.000002 -0.000000 0.000000 -0.000902 3.852098 11.905039 49.916761 -21.846420 -35.442053 -36.863825 8.526853 -7.439852 -77.036181 -20.192312 -35.504570 4.814249 45.237883 32.496824 0.108395 -0.103821 0.046714 31.239875 13.715132 -10.715216 -21.103486 -3.971326 -2.962973 30.256539 6.344424 -6.448665 -32.343278 -14.390355 -8.157527 20.872339 -11.244814 -8.185808 -18.722442 -18.085390 -5.094124 18.635510 -29.682650 -0.393828 0.555230 0.804613 0.101800 -0.000466 -4.075630 -11.897610 41.994052 19.447644 3.629858 -23.349451 -4.841587 5.348298 -83.346196 -0.165795 5.027009 4.813899 -45.237825 -32.497128 0.108394 0.103816 -0.046715 31.239929 -13.715164 10.714976 -21.103463 3.971270 2.963144 30.256560 -6.344442 6.448429 -32.343302 14.390251 8.157741 20.872419 11.244834 8.185621 -18.722460 18.085330 5.094268 18.635553 29.682660 0.393678 0.555237 -0.804615 -0.101800 -11.417671 -0.000001 0.000032 -8.694541 -1.231629 3.950023 3.558503 -0.190460 4.130722 10.259176 -0.516296 -5.348507 8.081086 -0.217817 -5.341317 3.148533 -0.198049 -9.484000 2.260201 -0.384733 -9.446047 3.251219 -0.487773 7.192936 2.528260 0.390474 7.066617 2.504829 0.702950 7.052490 -7.047704 -14.388070 13.800882 -4.423636 -0.084671 -1.020178 -50.193479 -15.906850 -2.340273 -2.318588 -4.298933 -0.446772 8.087298 0.872402 0.413570 17.133845 6.636278 3.687465 20.253539 6.370518 -9.434375 -1.696114 7.323593 -8.103850 27.537583 -0.507477 -25.237831 -47.702933 -3.134495 10.294206 -43.680706 18.743265 1.710410 -2.318605 4.298939 0.446764 8.087309 -0.872371 -0.413618 17.133832 -6.636223 -3.687520 20.253560 -6.370404 9.434275 -1.696094 -7.323608 8.103833 
